<svg width="20" height="20" viewBox="0 0 20 20" fill="none" xmlns="http://www.w3.org/2000/svg">
<path d="M1.71615 10.29C1.6467 10.1029 1.6467 9.89709 1.71615 9.71C2.39257 8.06987 3.54075 6.66753 5.01513 5.68074C6.48951 4.69396 8.22369 4.16718 9.99782 4.16718C11.7719 4.16718 13.5061 4.69396 14.9805 5.68074C16.4549 6.66753 17.6031 8.06987 18.2795 9.71C18.3489 9.89709 18.3489 10.1029 18.2795 10.29C17.6031 11.9301 16.4549 13.3325 14.9805 14.3192C13.5061 15.306 11.7719 15.8328 9.99782 15.8328C8.22369 15.8328 6.48951 15.306 5.01513 14.3192C3.54075 13.3325 2.39257 11.9301 1.71615 10.29Z" stroke="#2B7FFF" stroke-width="1.66667" stroke-linecap="round" stroke-linejoin="round"/>
<path d="M10 12.5C11.3807 12.5 12.5 11.3807 12.5 10C12.5 8.61929 11.3807 7.5 10 7.5C8.61929 7.5 7.5 8.61929 7.5 10C7.5 11.3807 8.61929 12.5 10 12.5Z" stroke="#2B7FFF" stroke-width="1.66667" stroke-linecap="round" stroke-linejoin="round"/>
</svg>
