<svg width="20" height="20" viewBox="0 0 20 20" fill="none" xmlns="http://www.w3.org/2000/svg">
<path d="M18.3346 10H1.66797" stroke="#FF8904" stroke-width="1.66667" stroke-linecap="round" stroke-linejoin="round"/>
<path d="M4.54297 4.25831L1.66797 9.99998V15C1.66797 15.442 1.84356 15.8659 2.15612 16.1785C2.46868 16.4911 2.89261 16.6666 3.33464 16.6666H16.668C17.11 16.6666 17.5339 16.4911 17.8465 16.1785C18.159 15.8659 18.3346 15.442 18.3346 15V9.99998L15.4596 4.25831C15.3217 3.98064 15.1089 3.74696 14.8454 3.58355C14.5819 3.42014 14.278 3.33348 13.968 3.33331H6.03464C5.72457 3.33348 5.42069 3.42014 5.15717 3.58355C4.89366 3.74696 4.68095 3.98064 4.54297 4.25831Z" stroke="#FF8904" stroke-width="1.66667" stroke-linecap="round" stroke-linejoin="round"/>
<path d="M5 13.3333H5.00833" stroke="#FF8904" stroke-width="1.66667" stroke-linecap="round" stroke-linejoin="round"/>
<path d="M8.33203 13.3333H8.34036" stroke="#FF8904" stroke-width="1.66667" stroke-linecap="round" stroke-linejoin="round"/>
</svg>
