<svg width="40" height="40" viewBox="0 0 40 40" fill="none" xmlns="http://www.w3.org/2000/svg">
<path d="M24.1693 6.66669H15.8359L11.6693 11.6667H6.66927C5.78522 11.6667 4.93737 12.0179 4.31225 12.643C3.68713 13.2681 3.33594 14.116 3.33594 15V30C3.33594 30.8841 3.68713 31.7319 4.31225 32.357C4.93737 32.9822 5.78522 33.3334 6.66927 33.3334H33.3359C34.22 33.3334 35.0678 32.9822 35.693 32.357C36.3181 31.7319 36.6693 30.8841 36.6693 30V15C36.6693 14.116 36.3181 13.2681 35.693 12.643C35.0678 12.0179 34.22 11.6667 33.3359 11.6667H28.3359L24.1693 6.66669Z" stroke="#00C950" stroke-width="3.33333" stroke-linecap="round" stroke-linejoin="round"/>
<path d="M20 26.6667C22.7614 26.6667 25 24.4281 25 21.6667C25 18.9053 22.7614 16.6667 20 16.6667C17.2386 16.6667 15 18.9053 15 21.6667C15 24.4281 17.2386 26.6667 20 26.6667Z" stroke="#00C950" stroke-width="3.33333" stroke-linecap="round" stroke-linejoin="round"/>
</svg>
