<svg width="16" height="16" viewBox="0 0 16 16" fill="none" xmlns="http://www.w3.org/2000/svg">
<g clip-path="url(#clip0_2_604)">
<path d="M10 14.6668V12.0002C10.0928 11.165 9.85329 10.3269 9.33334 9.66683C11.3333 9.66683 13.3333 8.3335 13.3333 6.00016C13.3867 5.16683 13.1533 4.34683 12.6667 3.66683C12.8533 2.90016 12.8533 2.10016 12.6667 1.3335C12.6667 1.3335 12 1.3335 10.6667 2.3335C8.90667 2.00016 7.09334 2.00016 5.33334 2.3335C4 1.3335 3.33334 1.3335 3.33334 1.3335C3.13334 2.10016 3.13334 2.90016 3.33334 3.66683C2.84792 4.34409 2.61232 5.16869 2.66667 6.00016C2.66667 8.3335 4.66667 9.66683 6.66667 9.66683C6.40667 9.9935 6.21334 10.3668 6.1 10.7668C5.98667 11.1668 5.95334 11.5868 6 12.0002V14.6668" stroke="#4A5565" stroke-width="1.33333" stroke-linecap="round" stroke-linejoin="round"/>
<path d="M6.00001 11.9998C2.99334 13.3332 2.66668 10.6665 1.33334 10.6665" stroke="#4A5565" stroke-width="1.33333" stroke-linecap="round" stroke-linejoin="round"/>
</g>
<defs>
<clipPath id="clip0_2_604">
<rect width="16" height="16" fill="white"/>
</clipPath>
</defs>
</svg>
