<?xml version="1.0" encoding="UTF-8"?>
<svg version="1.1" xmlns="http://www.w3.org/2000/svg" width="1024" height="1024">
<path d="M0 0 C1.03657242 -0.00570007 2.07314484 -0.01140015 3.14112854 -0.01727295 C5.30818689 -0.0266335 7.4752589 -0.03322079 9.64233398 -0.03710938 C12.95776465 -0.04692342 16.27260195 -0.07807331 19.58789062 -0.109375 C21.70442344 -0.11589661 23.82096063 -0.12115037 25.9375 -0.125 C26.92399033 -0.1373468 27.91048065 -0.1496936 28.92686462 -0.16241455 C29.84875076 -0.15941345 30.7706369 -0.15641235 31.72045898 -0.15332031 C32.52587631 -0.15696594 33.33129364 -0.16061157 34.16111755 -0.16436768 C37.3281462 0.33241628 38.99865456 1.17878197 41.50390625 3.203125 C42.01543095 5.84344516 42.17194883 7.85542104 42.12473202 10.50079441 C42.13110043 11.25329467 42.13746885 12.00579492 42.14403024 12.78109822 C42.15936998 15.32338806 42.13880859 17.86414872 42.11863708 20.40638733 C42.12224698 22.23896791 42.12804713 24.07154527 42.13585907 25.90411276 C42.15097596 30.9559533 42.1347401 36.00729016 42.11355245 41.05909121 C42.09612731 46.50085881 42.10742985 51.94257433 42.11521912 57.38435364 C42.12591286 68.05082133 42.10990874 78.71709227 42.08508085 89.38352997 C42.05721134 101.79327385 42.05580807 114.20297738 42.05563784 126.61274736 C42.05441345 149.41678303 42.02715171 172.22072752 41.98747312 195.02472443 C41.9513412 215.85641743 41.9322101 236.68805127 41.92944336 257.51977539 C41.9293061 258.51337557 41.9293061 258.51337557 41.92916607 259.52704848 C41.92888964 261.53096416 41.92861816 263.53487985 41.92834705 265.53879553 C41.92798165 268.20021856 41.92760927 270.86164159 41.92722988 273.52306461 C41.92704437 274.83543948 41.92685885 276.14781435 41.92666772 277.49995816 C41.92310097 297.95892074 41.90465188 318.41787306 41.88473664 338.87682526 C41.87770392 346.30388744 41.87292704 353.73094719 41.86977529 361.15801198 C41.8647349 372.93671429 41.85335802 384.71537057 41.82847499 396.49404914 C41.8172212 401.87951224 41.8091404 407.26492991 41.80960846 412.65040588 C41.80991517 417.57317782 41.8010615 422.49584205 41.78464044 427.41858583 C41.78029674 429.20653639 41.77936964 430.99449891 41.78206652 432.78245271 C41.78519888 435.19886331 41.77621261 437.61492259 41.76396847 440.03129673 C41.76970565 441.09062344 41.76970565 441.09062344 41.77555874 442.17135069 C41.73222072 446.97481053 41.73222072 446.97481053 39.50390625 449.203125 C36.92982483 449.46382141 36.92982483 449.46382141 33.63305664 449.4777832 C32.40160416 449.48731522 31.17015167 449.49684723 29.90138245 449.50666809 C28.55144218 449.50640667 27.20150189 449.50546964 25.8515625 449.50390625 C24.47155121 449.50779199 23.09154112 449.51212641 21.71153259 449.51689148 C18.81717047 449.52435915 15.92293031 449.52405864 13.02856445 449.51879883 C9.31820387 449.51300504 5.60834262 449.52992969 1.89806461 449.5531435 C-0.95267153 449.56787149 -3.80328719 449.56875383 -6.65405464 449.56563377 C-8.02200878 449.56614752 -9.38996957 449.57139527 -10.75788689 449.58144569 C-12.67050245 449.59377242 -14.58321866 449.585089 -16.49584961 449.57543945 C-18.12894325 449.57638359 -18.12894325 449.57638359 -19.79502869 449.5773468 C-22.49609375 449.203125 -22.49609375 449.203125 -24.34408569 447.79867554 C-25.76963123 445.824271 -25.91678921 444.61262578 -26.0078125 442.19140625 C-26.04326172 441.43408203 -26.07871094 440.67675781 -26.11523438 439.89648438 C-26.13779297 439.11080078 -26.16035156 438.32511719 -26.18359375 437.515625 C-26.21775391 436.71833984 -26.25191406 435.92105469 -26.28710938 435.09960938 C-26.36947479 433.13460596 -26.43446442 431.16888804 -26.49609375 429.203125 C-27.69878906 429.94755859 -27.69878906 429.94755859 -28.92578125 430.70703125 C-49.86851163 443.35098934 -72.3937069 449.43272394 -96.80859375 449.453125 C-97.88947266 449.45413712 -97.88947266 449.45413712 -98.9921875 449.45516968 C-137.79095468 449.39735623 -171.96918095 433.58086356 -199.36328125 406.37890625 C-224.56808959 380.67115603 -240.48356296 343.06897353 -240.69921875 306.9609375 C-240.70776886 305.81007156 -240.70776886 305.81007156 -240.7164917 304.63595581 C-240.725881 303.01740875 -240.73245131 301.39884309 -240.73632812 299.78027344 C-240.74593186 297.36877564 -240.77697021 294.95816989 -240.80859375 292.546875 C-240.88336805 281.49052706 -239.69178328 271.03185905 -237.49609375 260.203125 C-237.35572693 259.50546021 -237.21536011 258.80779541 -237.07073975 258.08898926 C-229.93728752 223.17006453 -207.69749096 189.24308825 -177.96484375 169.41015625 C-145.45798114 148.46964628 -107.44662936 138.3593766 -68.89135742 145.69287109 C-56.16791375 148.4845399 -44.65682156 153.04649617 -33.0625 158.8984375 C-32.42606567 159.21820557 -31.78963135 159.53797363 -31.13391113 159.86743164 C-29.58732904 160.64471809 -28.04161761 161.42373653 -26.49609375 162.203125 C-26.4927836 161.38552515 -26.48947346 160.5679253 -26.486063 159.7255497 C-26.4049325 139.85486233 -26.31287301 119.98425201 -26.20856667 100.11367226 C-26.1583905 90.50450872 -26.11194827 80.89535394 -26.07421875 71.28613281 C-26.04133408 62.91322228 -26.00152259 54.54037865 -25.95330369 46.16754186 C-25.92800351 41.73194299 -25.90623275 37.29638869 -25.89274979 32.86073685 C-25.8799612 28.68946905 -25.85794188 24.51835387 -25.82871056 20.34716988 C-25.8196096 18.81287214 -25.81393871 17.2785498 -25.81188011 15.74422646 C-25.80857521 13.65593866 -25.793147 11.56808829 -25.77456665 9.47988892 C-25.76903589 8.30921183 -25.76350513 7.13853474 -25.75780678 5.93238258 C-25.49609375 3.203125 -25.49609375 3.203125 -23.49609375 1.203125 C-15.79911507 -0.09317755 -7.78943445 0.03404653 0 0 Z M-143.49609375 229.203125 C-144.15996094 229.68265625 -144.82382812 230.1621875 -145.5078125 230.65625 C-161.45245733 242.99569541 -170.65163112 264.81564496 -173.49609375 284.203125 C-175.34196746 308.9010365 -171.30850031 333.73916348 -154.953125 353.34375 C-141.16792111 369.15045469 -123.07715161 380.69945558 -101.79296875 382.421875 C-79.22008094 383.6420311 -58.74911792 378.30386044 -41.49609375 363.203125 C-40.82449219 362.67332031 -40.15289062 362.14351562 -39.4609375 361.59765625 C-24.00641321 349.0613273 -15.37486431 328.48731163 -12.49609375 309.203125 C-10.79769227 282.50659643 -14.78586527 258.14243518 -32.59375 237.35546875 C-43.0986959 225.69310858 -57.15822043 216.98078639 -72.49609375 213.203125 C-73.2953125 213.00074219 -74.09453125 212.79835938 -74.91796875 212.58984375 C-99.64080731 207.21372353 -123.78929141 214.0991702 -143.49609375 229.203125 Z " fill="#084F69" transform="translate(456.49609375,232.796875)"/>
<path d="M0 0 C1.13912842 0.14949097 1.13912842 0.14949097 2.30126953 0.30200195 C17.54006323 2.54827507 30.8134631 9.35450411 40.1875 21.69140625 C51.40996697 37.95945817 50.54689309 56.02600338 50.41796875 75.02734375 C50.41236282 77.4721297 50.40809744 79.91691905 50.40510559 82.36170959 C50.39373532 88.74850013 50.36433651 95.13508098 50.33099365 101.52178955 C50.30012299 108.05811732 50.28656416 114.59447948 50.27148438 121.13085938 C50.23945844 133.92066157 50.18894749 146.71031955 50.125 159.5 C51.659216 158.77493256 51.659216 158.77493256 53.22442627 158.03521729 C54.58348247 157.39608405 55.94259603 156.75707275 57.30175781 156.11816406 C57.97385284 155.80013824 58.64594788 155.48211243 59.33840942 155.15444946 C64.41196796 152.77383626 69.47978886 150.78820179 74.875 149.25 C75.72022217 149.00749512 76.56544434 148.76499023 77.4362793 148.51513672 C91.65191647 144.57906885 105.2556154 143.2344001 120 143.1875 C121.29526611 143.18186035 122.59053223 143.1762207 123.92504883 143.17041016 C135.47760167 143.25759923 146.48331725 144.78937646 157.625 147.8125 C158.43686768 148.03123779 159.24873535 148.24997559 160.08520508 148.4753418 C186.99911848 155.90804845 207.6732204 169.85936817 227.125 189.5 C227.79660156 190.17417969 228.46820312 190.84835937 229.16015625 191.54296875 C247.32751104 210.76045965 258.51315832 234.87403229 264.125 260.5 C264.38966064 261.67780029 264.38966064 261.67780029 264.65966797 262.87939453 C272.79852943 300.55691871 265.3201409 341.78483113 245.125 374.5 C242.84171047 377.93152168 240.47416482 381.29870298 238.078125 384.65234375 C236.53290509 386.90527437 235.24801319 389.02100813 234.125 391.5 C234.83785156 392.20125 235.55070313 392.9025 236.28515625 393.625 C244.9875094 402.23135451 244.9875094 402.23135451 248.5625 406.5 C252.08846642 410.66547993 256.11448728 414.23339585 260.21459961 417.8203125 C261.55318043 419.00845502 262.84372014 420.25027876 264.125 421.5 C264.125 422.16 264.125 422.82 264.125 423.5 C265.115 423.83 266.105 424.16 267.125 424.5 C268.60067749 426.00186157 268.60067749 426.00186157 270.19287109 427.94775391 C274.52185413 433.04601304 279.25698022 437.66602291 284.0390625 442.3359375 C285.46447629 443.74106541 286.88987466 445.14620934 288.31438255 446.55225563 C291.78840207 449.98098548 295.26631233 453.40553898 298.76074219 456.81347656 C300.73293476 458.73747144 302.69809927 460.66815938 304.65609741 462.6065979 C306.48806448 464.41997196 308.32956319 466.22378516 310.18203735 468.01620483 C317.34254766 475.1459054 323.15222244 483.12734731 323.4375 493.5625 C323.32162773 502.34561794 320.20183011 509.37723488 314.171875 515.7421875 C308.15081812 520.91294245 301.06890723 523.71801461 293.125 523.5 C283.62562381 522.76810585 276.19936066 519.14941731 269.921875 511.96875 C266.52963444 507.90916717 263.30878125 503.7240266 260.125 499.5 C259.35414063 498.48421875 258.58328125 497.4684375 257.7890625 496.421875 C256.37612727 494.54146305 254.96997167 492.6559396 253.5703125 490.765625 C246.91620127 481.8214994 240.01173101 473.04085544 233 464.375 C229.05335056 459.47979962 225.31424946 454.43488808 221.55517578 449.39550781 C216.8112574 443.04921928 211.88892893 436.86436866 206.859375 430.7421875 C205.75335937 429.38480469 205.75335937 429.38480469 204.625 428 C203.9546875 427.1853125 203.284375 426.370625 202.59375 425.53125 C201.125 423.5 201.125 423.5 201.125 421.5 C200.3721875 421.9846875 199.619375 422.469375 198.84375 422.96875 C165.42538264 444.05801096 128.84400096 452.54332648 89.69189453 444.23413086 C76.32497114 441.19507914 64.04005221 436.35220336 52.11328125 429.625 C49.23278638 428.23154502 49.23278638 428.23154502 46.54296875 429.0625 C43.85041906 430.66324036 41.55497513 432.5240561 39.125 434.5 C25.02535576 443.29295719 8.95045473 448.61898429 -7.875 447.5 C-9.55330908 446.44054985 -9.55330908 446.44054985 -10.875 444.5 C-11.16894864 441.99607676 -11.27763777 439.74075705 -11.25252342 437.23635864 C-11.25688374 436.48753473 -11.26124407 435.73871082 -11.26573652 434.96719527 C-11.27675503 432.43774793 -11.26624039 429.90883863 -11.25595093 427.37939453 C-11.25940489 425.55577883 -11.26416769 423.7321652 -11.27013266 421.90855598 C-11.28270825 416.8815739 -11.27644259 411.85476168 -11.26717401 406.82777882 C-11.26041059 401.41257868 -11.27085125 395.9974086 -11.27911377 390.58221436 C-11.29248233 379.96760387 -11.28955949 369.35305687 -11.28087585 358.73844385 C-11.27411196 350.11486952 -11.27317696 341.49131304 -11.2764473 332.86773682 C-11.276907 331.64229979 -11.27736669 330.41686276 -11.27784032 329.15429127 C-11.27879946 326.66515906 -11.2797721 324.17602686 -11.2807581 321.68689466 C-11.28932114 298.32378855 -11.27946353 274.96071771 -11.263357 251.59761739 C-11.2497914 231.53315969 -11.25228083 211.46875365 -11.26611328 191.40429688 C-11.28215297 168.12712941 -11.28849708 144.84999288 -11.27927649 121.57282066 C-11.2783208 119.09263484 -11.27737769 116.61244901 -11.2764473 114.13226318 C-11.27598447 112.91183354 -11.27552164 111.69140391 -11.27504479 110.43399155 C-11.27245006 101.81668427 -11.27683628 93.19939654 -11.28388596 84.58209229 C-11.29228327 74.0863421 -11.29005817 63.59065925 -11.27404372 53.09491682 C-11.26613713 47.73563141 -11.2631099 42.37645845 -11.27299118 37.01717377 C-11.28188934 32.11713759 -11.27708634 27.21731875 -11.26105852 22.31730247 C-11.25768992 20.53875245 -11.25945101 18.76018431 -11.26668589 16.98164582 C-11.27572816 14.57537838 -11.26653463 12.16986834 -11.25252342 9.76364136 C-11.25954692 9.06325926 -11.26657042 8.36287715 -11.27380675 7.64127135 C-11.24077561 4.82858288 -11.15607984 2.92159461 -9.57357275 0.54797554 C-6.58954888 -1.29309016 -3.32073369 -0.45904902 0 0 Z M47.75 228.13671875 C30.34118031 249.13940462 22.41485752 275.69173952 24.37890625 302.796875 C26.4369658 324.25949597 34.27099921 345.630589 49.125 361.5 C50.04375113 362.68588801 50.96060871 363.87324704 51.875 365.0625 C66.91931884 382.29133637 90.8652681 391.79681116 113.125 393.5 C138.2669312 395.09090186 161.39110369 386.82185025 180.66015625 370.73828125 C200.20037516 352.99415219 212.70135872 327.88470397 214.25048828 301.35058594 C215.44148134 273.20963435 207.26829284 246.481844 188.125 225.5 C180.11972822 216.94509735 171.5998381 210.69663825 161.125 205.5 C160.03832031 204.94570313 158.95164062 204.39140625 157.83203125 203.8203125 C119.41269471 185.71413045 75.53106487 197.29425363 47.75 228.13671875 Z " fill="#6FB4DD" transform="translate(533.875,234.5)"/>
<path d="M0 0 C1.22203125 0.06445312 2.4440625 0.12890625 3.703125 0.1953125 C6.75 0.875 6.75 0.875 7.91455078 2.48291016 C9.02168588 5.6529013 9.07873277 8.47182237 9.1640625 11.828125 C9.18342865 12.48834656 9.2027948 13.14856812 9.2227478 13.82879639 C9.28229349 15.92740153 9.32882722 18.02606228 9.375 20.125 C9.41320294 21.5521066 9.45225602 22.97919072 9.4921875 24.40625 C9.5879733 27.89562691 9.67209642 31.38517286 9.75 34.875 C10.53286377 34.66278809 11.31572754 34.45057617 12.12231445 34.23193359 C24.25979821 31.04909547 35.52985926 29.99670735 46.8984375 36.01171875 C56.78606375 41.83769927 63.13975493 51.06409557 66.75 61.875 C67.30998375 65.4980233 67.37045108 69.02639261 67.3125 72.6875 C67.29823975 74.13890381 67.29823975 74.13890381 67.28369141 75.61962891 C66.97058404 86.39739987 63.52897684 96.11727719 55.75 103.875 C54.265 104.37 54.265 104.37 52.75 104.875 C52.75 105.535 52.75 106.195 52.75 106.875 C46.1822392 112.88717983 36.34135021 114.83447066 27.6875 115.25 C21.55765564 114.6662053 15.42119136 113.241499 9.640625 111.08984375 C9.01671875 111.01894531 8.3928125 110.94804688 7.75 110.875 C7.18539062 111.35195313 6.62078125 111.82890625 6.0390625 112.3203125 C2.51574552 114.71328205 -0.7480379 114.06852392 -4.875 113.75 C-5.65101563 113.71390625 -6.42703125 113.6778125 -7.2265625 113.640625 C-9.4765625 113.4921875 -9.4765625 113.4921875 -13.25 112.875 C-15.29824702 109.80262948 -15.50040613 109.18849553 -15.50396729 105.72698975 C-15.50960693 104.88315231 -15.51524658 104.03931488 -15.52105713 103.16990662 C-15.51700867 102.24726517 -15.51296021 101.32462372 -15.50878906 100.37402344 C-15.5122937 99.39971878 -15.51579834 98.42541412 -15.51940918 97.42158508 C-15.5282295 94.19244309 -15.52237439 90.96351933 -15.515625 87.734375 C-15.516972 85.49098671 -15.51891282 83.24759871 -15.52142334 81.00421143 C-15.52437537 76.29656197 -15.52007599 71.58898831 -15.51074219 66.88134766 C-15.4993739 60.85442916 -15.50589003 54.82768931 -15.51788712 48.80077744 C-15.52512596 44.16474063 -15.52280802 39.52874592 -15.51763153 34.89270782 C-15.51629927 32.67120594 -15.51792789 30.44970021 -15.52259064 28.22820282 C-15.52768612 25.11655112 -15.51990186 22.00518519 -15.50878906 18.89355469 C-15.51283752 17.97901016 -15.51688599 17.06446564 -15.52105713 16.12220764 C-15.48733247 11.00867664 -15.11059389 6.6673491 -13.25 1.875 C-8.90320039 -0.47633897 -4.85160737 -0.31999963 0 0 Z M11.3125 60.875 C7.47849121 68.23629687 8.44668258 76.5817191 10.8125 84.375 C14.23075328 88.78564939 17.90870864 91.32573873 23.4375 92.39453125 C28.46474493 92.69476949 32.05194342 92.18322987 36.25 89.3125 C40.89722204 85.18904274 42.42957699 81.64649389 43.12890625 75.59765625 C43.42144188 69.7656161 43.56104348 65.05660691 40.0625 60.1875 C36.02392592 55.81159722 32.97382326 53.7416201 26.9375 53.4375 C20.2033184 53.66832888 15.57578713 55.62787737 11.3125 60.875 Z " fill="#70B4DC" transform="translate(637.25,482.125)"/>
<path d="M0 0 C1.6953125 1.6953125 1.6953125 1.6953125 2.1953125 5.1953125 C1.6953125 8.6953125 1.6953125 8.6953125 0.1640625 10.35546875 C-3.21926248 12.19167202 -6.53904274 12.34870694 -10.3046875 12.6328125 C-27.76451214 14.34871103 -42.96297974 21.4415593 -54.30859375 35.109375 C-61.76356581 45.25328946 -65.45454304 56.12464041 -67.82421875 68.3828125 C-67.98277344 69.1871875 -68.14132812 69.9915625 -68.3046875 70.8203125 C-68.4284375 71.52414062 -68.5521875 72.22796875 -68.6796875 72.953125 C-69.3046875 74.6953125 -69.3046875 74.6953125 -72.3046875 76.6953125 C-77.57947278 77.2447693 -77.57947278 77.2447693 -79.96484375 75.4375 C-82.63653225 71.96352603 -81.75716423 67.85601809 -81.3046875 63.6953125 C-78.64108741 47.881234 -72.02959932 34.64843508 -61.3046875 22.6953125 C-60.78777344 22.08558594 -60.27085937 21.47585938 -59.73828125 20.84765625 C-48.21552094 8.169732 -16.78986613 -9.50477167 0 0 Z " fill="#78B8DE" transform="translate(658.3046875,450.3046875)"/>
<path d="M0 0 C1.22203125 0.06445312 2.4440625 0.12890625 3.703125 0.1953125 C6.75 0.875 6.75 0.875 7.91455078 2.48291016 C9.02168588 5.6529013 9.07873277 8.47182237 9.1640625 11.828125 C9.18342865 12.48834656 9.2027948 13.14856812 9.2227478 13.82879639 C9.28229349 15.92740153 9.32882722 18.02606228 9.375 20.125 C9.41320294 21.5521066 9.45225602 22.97919072 9.4921875 24.40625 C9.5879733 27.89562691 9.67209642 31.38517286 9.75 34.875 C10.53286377 34.66278809 11.31572754 34.45057617 12.12231445 34.23193359 C24.25979821 31.04909547 35.52985926 29.99670735 46.8984375 36.01171875 C56.78606375 41.83769927 63.13975493 51.06409557 66.75 61.875 C67.30998375 65.4980233 67.37045108 69.02639261 67.3125 72.6875 C67.29823975 74.13890381 67.29823975 74.13890381 67.28369141 75.61962891 C66.97058404 86.39739987 63.52897684 96.11727719 55.75 103.875 C54.265 104.37 54.265 104.37 52.75 104.875 C52.75 105.535 52.75 106.195 52.75 106.875 C46.1822392 112.88717983 36.34135021 114.83447066 27.6875 115.25 C21.55765564 114.6662053 15.42119136 113.241499 9.640625 111.08984375 C9.01671875 111.01894531 8.3928125 110.94804688 7.75 110.875 C7.18539062 111.35195313 6.62078125 111.82890625 6.0390625 112.3203125 C2.51574552 114.71328205 -0.7480379 114.06852392 -4.875 113.75 C-5.65101563 113.71390625 -6.42703125 113.6778125 -7.2265625 113.640625 C-9.4765625 113.4921875 -9.4765625 113.4921875 -13.25 112.875 C-15.29824702 109.80262948 -15.50040613 109.18849553 -15.50396729 105.72698975 C-15.50960693 104.88315231 -15.51524658 104.03931488 -15.52105713 103.16990662 C-15.51700867 102.24726517 -15.51296021 101.32462372 -15.50878906 100.37402344 C-15.5122937 99.39971878 -15.51579834 98.42541412 -15.51940918 97.42158508 C-15.5282295 94.19244309 -15.52237439 90.96351933 -15.515625 87.734375 C-15.516972 85.49098671 -15.51891282 83.24759871 -15.52142334 81.00421143 C-15.52437537 76.29656197 -15.52007599 71.58898831 -15.51074219 66.88134766 C-15.4993739 60.85442916 -15.50589003 54.82768931 -15.51788712 48.80077744 C-15.52512596 44.16474063 -15.52280802 39.52874592 -15.51763153 34.89270782 C-15.51629927 32.67120594 -15.51792789 30.44970021 -15.52259064 28.22820282 C-15.52768612 25.11655112 -15.51990186 22.00518519 -15.50878906 18.89355469 C-15.51283752 17.97901016 -15.51688599 17.06446564 -15.52105713 16.12220764 C-15.48733247 11.00867664 -15.11059389 6.6673491 -13.25 1.875 C-8.90320039 -0.47633897 -4.85160737 -0.31999963 0 0 Z M-11.25 5.875 C-11.54999921 7.79409171 -11.54999921 7.79409171 -11.49723816 10.01905823 C-11.50143265 10.88702026 -11.50562714 11.7549823 -11.50994873 12.64924622 C-11.50432922 13.60361069 -11.49870972 14.55797516 -11.49291992 15.54125977 C-11.49481827 16.54456329 -11.49671661 17.54786682 -11.49867249 18.58157349 C-11.50238818 21.90992965 -11.49166544 25.23806937 -11.48046875 28.56640625 C-11.47927738 30.87043736 -11.4788237 33.17446896 -11.4790802 35.47850037 C-11.477514 40.31146273 -11.46921339 45.14435116 -11.45581055 49.97729492 C-11.43881102 56.18751548 -11.43499639 62.39765476 -11.43575573 68.60789585 C-11.43548446 73.36635623 -11.43001033 78.12479867 -11.42275429 82.8832531 C-11.4195613 85.17390749 -11.41759875 87.46456392 -11.41686058 89.75522041 C-11.41470421 92.94956081 -11.40597554 96.14381313 -11.39526367 99.33813477 C-11.39594345 100.77271782 -11.39594345 100.77271782 -11.39663696 102.23628235 C-11.39237198 103.10142456 -11.38810699 103.96656677 -11.38371277 104.85792542 C-11.38203692 105.6139634 -11.38036108 106.37000139 -11.37863445 107.14894962 C-11.43646389 108.90606933 -11.43646389 108.90606933 -10.25 109.875 C-7.7557035 110.02813272 -5.30811507 110.10656517 -2.8125 110.125 C-2.11833984 110.145625 -1.42417969 110.16625 -0.70898438 110.1875 C1.54999047 110.23950458 1.54999047 110.23950458 4.75 109.875 C5.41 108.885 6.07 107.895 6.75 106.875 C9.375 106.1875 9.375 106.1875 11.75 105.875 C12.08 106.865 12.41 107.855 12.75 108.875 C20.11914249 110.15064754 27.2615073 111.31633702 34.75 110.875 C35.44867187 110.84535156 36.14734375 110.81570313 36.8671875 110.78515625 C41.98387241 110.38933723 44.88617552 109.0626552 48.75 105.875 C48.75 105.215 48.75 104.555 48.75 103.875 C49.7709375 103.565625 49.7709375 103.565625 50.8125 103.25 C56.84604038 100.42578961 60.66088167 97.09320726 63.1875 90.8125 C66.61063089 78.89107461 66.80866754 64.35137022 61.09375 53.19140625 C60.42859375 52.04478516 60.42859375 52.04478516 59.75 50.875 C59.1725 49.72 58.595 48.565 58 47.375 C55.26317775 44.33408638 52.66502133 43.23316133 48.87109375 41.83203125 C46.75 40.875 46.75 40.875 45.28515625 39.38671875 C40.88776866 35.05646685 35.13770553 35.54019851 29.375 35.5625 C28.55 35.54638672 27.725 35.53027344 26.875 35.51367188 C21.41783039 35.50934079 17.76250059 36.55657174 12.75 38.875 C10.42288201 39.24926921 8.08950367 39.58815832 5.75 39.875 C5.76047363 38.96210205 5.77094727 38.0492041 5.78173828 37.10864258 C5.81591281 33.70741225 5.84094384 30.30636558 5.85986328 26.9050293 C5.86989352 25.43559888 5.88352101 23.96618829 5.90087891 22.49682617 C5.92525898 20.37934463 5.93651286 18.26212801 5.9453125 16.14453125 C5.95578613 14.87198486 5.96625977 13.59943848 5.97705078 12.28833008 C5.75942228 9.01664829 5.16502625 6.80542634 3.75 3.875 C1.62527424 3.82113371 -0.49983652 3.78226929 -2.625 3.75 C-3.80835938 3.72679687 -4.99171875 3.70359375 -6.2109375 3.6796875 C-9.36153817 3.54633771 -9.36153817 3.54633771 -11.25 5.875 Z " fill="#B4D6E9" transform="translate(637.25,482.125)"/>
<path d="M0 0 C1.77503906 0.03480469 1.77503906 0.03480469 3.5859375 0.0703125 C5.36871094 0.09738281 5.36871094 0.09738281 7.1875 0.125 C8.10273437 0.14820313 9.01796875 0.17140625 9.9609375 0.1953125 C11.99184751 4.40119362 12.19446973 7.82114702 12.15625 12.46484375 C12.1534201 13.14584641 12.15059021 13.82684906 12.14767456 14.52848816 C12.13654275 16.68844705 12.11145207 18.84798044 12.0859375 21.0078125 C12.07589861 22.47850961 12.06677435 23.94921326 12.05859375 25.41992188 C12.03662663 29.01185536 12.0021457 32.60354235 11.9609375 36.1953125 C15.79592611 35.72475826 18.77301866 35.28180785 22.3046875 33.65625 C26.85931728 31.83634451 30.61228677 31.75137434 35.4609375 31.8203125 C36.68490234 31.80291016 36.68490234 31.80291016 37.93359375 31.78515625 C44.90917024 31.81874651 49.93123706 33.16561206 54.9609375 38.1953125 C56.0746875 38.5871875 57.1884375 38.9790625 58.3359375 39.3828125 C63.07353974 41.31774899 64.74292553 44.77458519 66.9609375 49.1953125 C67.35539063 49.85789062 67.74984375 50.52046875 68.15625 51.203125 C73.37479241 61.3847567 72.50517251 76.38700612 69.3984375 87.1328125 C67.3735774 92.16624134 64.62678739 95.42920462 59.9609375 98.1953125 C58.30183746 98.88059295 56.63761186 99.55423113 54.9609375 100.1953125 C54.4659375 101.6803125 54.4659375 101.6803125 53.9609375 103.1953125 C49.95827202 106.34892773 45.9113674 106.90781022 40.9609375 107.1953125 C40.28160156 107.2365625 39.60226562 107.2778125 38.90234375 107.3203125 C32.14664974 107.5186448 25.59917836 106.34443611 18.9609375 105.1953125 C18.6309375 104.2053125 18.3009375 103.2153125 17.9609375 102.1953125 C15.52376492 102.46565884 15.52376492 102.46565884 12.9609375 103.1953125 C12.3009375 104.1853125 11.6409375 105.1753125 10.9609375 106.1953125 C8.35038156 106.44421908 5.99998828 106.5226102 3.3984375 106.4453125 C2.35139648 106.43757812 2.35139648 106.43757812 1.28320312 106.4296875 C-3.8848907 106.3494843 -3.8848907 106.3494843 -5.0390625 105.1953125 C-5.1386329 103.85925117 -5.16980553 102.51800108 -5.17277527 101.17823792 C-5.17704025 100.3130957 -5.18130524 99.44795349 -5.18569946 98.55659485 C-5.18524628 97.60020615 -5.18479309 96.64381744 -5.18432617 95.65844727 C-5.18768478 94.65689606 -5.1910434 93.65534485 -5.19450378 92.6234436 C-5.20404547 89.29452289 -5.20595849 85.9656523 -5.20703125 82.63671875 C-5.21024154 80.33365355 -5.21360543 78.03058856 -5.21711731 75.7275238 C-5.2231166 70.89280728 -5.22495638 66.05810866 -5.22436523 61.22338867 C-5.22426355 55.01433208 -5.2379184 48.8053897 -5.25513744 42.59636021 C-5.26623091 37.83785978 -5.26828526 33.0793872 -5.26775551 28.32087517 C-5.26893954 26.03104191 -5.27338481 23.74120802 -5.28108788 21.45138741 C-5.29083458 18.25469992 -5.28803087 15.05826339 -5.28198242 11.86157227 C-5.28760193 10.90720779 -5.29322144 9.95284332 -5.29901123 8.96955872 C-5.29481674 8.10159668 -5.29062225 7.23363464 -5.28630066 6.33937073 C-5.28684543 5.58295571 -5.28739019 4.8265407 -5.28795147 4.04720402 C-4.81824536 0.55229319 -3.29673789 0.21187262 0 0 Z M-4.0390625 3.1953125 C-4.33882037 5.06105184 -4.33882037 5.06105184 -4.28630066 7.21875 C-4.29049515 8.06002441 -4.29468964 8.90129883 -4.29901123 9.76806641 C-4.29339172 10.69280762 -4.28777222 11.61754883 -4.28198242 12.5703125 C-4.28388077 13.54274902 -4.28577911 14.51518555 -4.28773499 15.51708984 C-4.29145073 18.74324513 -4.28072715 21.9691771 -4.26953125 25.1953125 C-4.26833978 27.42968723 -4.26788622 29.66406247 -4.2681427 31.8984375 C-4.26657645 36.5859693 -4.25827599 41.27342488 -4.24487305 45.9609375 C-4.22788303 51.98048965 -4.22405863 57.99995794 -4.22481823 64.01953125 C-4.22454676 68.63477382 -4.21906933 73.24999793 -4.21181679 77.86523438 C-4.20862643 80.08528504 -4.20666186 82.3053378 -4.20592308 84.52539062 C-4.20376341 87.62373444 -4.1950272 90.72198797 -4.18432617 93.8203125 C-4.18477936 94.74505371 -4.18523254 95.66979492 -4.18569946 96.62255859 C-4.18143448 97.46383301 -4.17716949 98.30510742 -4.17277527 99.171875 C-4.17109942 99.90486816 -4.16942358 100.63786133 -4.16769695 101.39306641 C-4.1472035 103.29769839 -4.1472035 103.29769839 -3.0390625 105.1953125 C-0.91467911 105.27609891 1.2105698 105.33440391 3.3359375 105.3828125 C4.51929688 105.41761719 5.70265625 105.45242188 6.921875 105.48828125 C7.92476562 105.39160156 8.92765625 105.29492188 9.9609375 105.1953125 C10.6209375 104.2053125 11.2809375 103.2153125 11.9609375 102.1953125 C16.30680578 101.80023357 18.28097247 101.74200248 21.9609375 104.1953125 C33.34851618 107.13287261 42.66006218 106.7661444 53.08203125 101.02734375 C57.10741877 98.35240882 59.50400828 95.40719117 61.9609375 91.1953125 C62.4971875 90.3703125 63.0334375 89.5453125 63.5859375 88.6953125 C67.00224883 82.48383736 67.32612128 76.81796876 67.3359375 69.8828125 C67.37267578 68.53413086 67.37267578 68.53413086 67.41015625 67.15820312 C67.43857181 60.60841711 65.98303722 55.95948586 62.9609375 50.1953125 C62.1875 48.4628125 62.1875 48.4628125 61.3984375 46.6953125 C60.15419181 43.89040331 60.15419181 43.89040331 56.9609375 43.1953125 C56.9609375 42.5353125 56.9609375 41.8753125 56.9609375 41.1953125 C55.69402243 40.52122942 54.42223001 39.85630753 53.1484375 39.1953125 C52.44074219 38.8240625 51.73304688 38.4528125 51.00390625 38.0703125 C48.87173021 36.99845892 48.87173021 36.99845892 45.9609375 37.1953125 C45.9609375 36.2053125 45.9609375 35.2153125 45.9609375 34.1953125 C35.70139877 31.87058556 27.08744929 32.14277627 18.0703125 37.78515625 C17.37421875 38.25050781 16.678125 38.71585938 15.9609375 39.1953125 C14.9709375 39.6903125 14.9709375 39.6903125 13.9609375 40.1953125 C13.9609375 39.5353125 13.9609375 38.8753125 13.9609375 38.1953125 C12.9709375 38.1953125 11.9809375 38.1953125 10.9609375 38.1953125 C10.92335327 36.56734741 10.92335327 36.56734741 10.88500977 34.90649414 C10.79109995 30.8939965 10.69083983 26.88167868 10.58862305 22.86938477 C10.54521177 21.13016962 10.50354138 19.39091015 10.46362305 17.65161133 C10.40606982 15.15692762 10.3423333 12.6624684 10.27734375 10.16796875 C10.26063126 9.38567398 10.24391876 8.60337921 10.22669983 7.79737854 C10.45445019 4.19659469 10.45445019 4.19659469 8.9609375 1.1953125 C7.15166469 1.07043492 5.33697643 1.01960404 3.5234375 1.0078125 C2.53472656 0.99363281 1.54601562 0.97945313 0.52734375 0.96484375 C-2.20490665 0.93380497 -2.20490665 0.93380497 -4.0390625 3.1953125 Z " fill="#97C7E2" transform="translate(631.0390625,485.8046875)"/>
<path d="M0 0 C1.24523437 0.11085938 2.49046875 0.22171875 3.7734375 0.3359375 C5.18496094 0.47902344 5.18496094 0.47902344 6.625 0.625 C6.625 1.285 6.625 1.945 6.625 2.625 C5.49320313 2.60179687 4.36140625 2.57859375 3.1953125 2.5546875 C1.71354825 2.53593099 0.23177688 2.51773066 -1.25 2.5 C-2.36955078 2.47486328 -2.36955078 2.47486328 -3.51171875 2.44921875 C-5.46694461 2.4316041 -7.42242021 2.52179811 -9.375 2.625 C-12.43614667 5.68614667 -12.49982398 8.70009444 -12.50198364 12.89567566 C-12.50480347 13.74114456 -12.50762329 14.58661346 -12.51052856 15.45770264 C-12.50850433 16.37682434 -12.5064801 17.29594604 -12.50439453 18.24291992 C-12.50614685 19.21725479 -12.50789917 20.19158966 -12.50970459 21.19544983 C-12.51410556 24.41547426 -12.51119195 27.63544377 -12.5078125 30.85546875 C-12.50848588 33.08938101 -12.50945619 35.32329319 -12.51071167 37.5572052 C-12.51218613 42.23695575 -12.51004154 46.91668721 -12.50537109 51.59643555 C-12.49966407 57.60929724 -12.50296056 63.6221144 -12.50894356 69.63497448 C-12.51254752 74.24587849 -12.51141152 78.85677184 -12.50881577 83.46767616 C-12.50814655 85.68576373 -12.50897472 87.90385225 -12.51129532 90.12193871 C-12.51382021 93.21307335 -12.50998402 96.30413454 -12.50439453 99.39526367 C-12.50641876 100.32045807 -12.50844299 101.24565247 -12.51052856 102.19888306 C-12.90600038 106.2321836 -12.90600038 106.2321836 -11.375 109.625 C-8.51232433 109.69825168 -5.674281 109.71738205 -2.8125 109.6875 C-1.60303711 109.68073242 -1.60303711 109.68073242 -0.36914062 109.67382812 C1.62893756 109.66200518 3.62697783 109.64406914 5.625 109.625 C5.955 108.965 6.285 108.305 6.625 107.625 C9.13244207 108.04290701 11.24353807 108.41574174 13.48486328 109.64526367 C17.55584017 111.50892216 22.09470795 110.95185884 26.5 110.9375 C27.48097656 110.95361328 28.46195313 110.96972656 29.47265625 110.98632812 C34.98826894 110.99004986 38.83096492 110.65200292 43.625 107.625 C44.32625 107.315625 45.0275 107.00625 45.75 106.6875 C47.72819183 105.68379923 47.72819183 105.68379923 49.3125 103.875 C52.7057128 100.57349565 56.64993802 98.17311665 60.625 95.625 C59.18042484 99.51374473 57.83383957 101.91754161 54.625 104.625 C53.965 104.625 53.305 104.625 52.625 104.625 C52.625 105.285 52.625 105.945 52.625 106.625 C46.0572392 112.63717983 36.21635021 114.58447066 27.5625 115 C21.43265564 114.4162053 15.29619136 112.991499 9.515625 110.83984375 C8.89171875 110.76894531 8.2678125 110.69804688 7.625 110.625 C7.06039062 111.10195313 6.49578125 111.57890625 5.9140625 112.0703125 C2.39074552 114.46328205 -0.8730379 113.81852392 -5 113.5 C-5.77601563 113.46390625 -6.55203125 113.4278125 -7.3515625 113.390625 C-9.6015625 113.2421875 -9.6015625 113.2421875 -13.375 112.625 C-15.42324702 109.55262948 -15.62540613 108.93849553 -15.62896729 105.47698975 C-15.63460693 104.63315231 -15.64024658 103.78931488 -15.64605713 102.91990662 C-15.64200867 101.99726517 -15.63796021 101.07462372 -15.63378906 100.12402344 C-15.6372937 99.14971878 -15.64079834 98.17541412 -15.64440918 97.17158508 C-15.6532295 93.94244309 -15.64737439 90.71351933 -15.640625 87.484375 C-15.641972 85.24098671 -15.64391282 82.99759871 -15.64642334 80.75421143 C-15.64937537 76.04656197 -15.64507599 71.33898831 -15.63574219 66.63134766 C-15.6243739 60.60442916 -15.63089003 54.57768931 -15.64288712 48.55077744 C-15.65012596 43.91474063 -15.64780802 39.27874592 -15.64263153 34.64270782 C-15.64129927 32.42120594 -15.64292789 30.19970021 -15.64759064 27.97820282 C-15.65268612 24.86655112 -15.64490186 21.75518519 -15.63378906 18.64355469 C-15.63783752 17.72901016 -15.64188599 16.81446564 -15.64605713 15.87220764 C-15.61233056 10.75838722 -15.23443222 6.41796847 -13.375 1.625 C-8.93503826 -0.80981773 -4.94171599 -0.46619962 0 0 Z " fill="#DCEAF3" transform="translate(637.375,482.375)"/>
<path d="M0 0 C9.74659596 -0.78042138 9.74659596 -0.78042138 14.3125 2.0625 C15.199375 3.031875 16.08625 4.00125 17 5 C17.5465625 5.5775 18.093125 6.155 18.65625 6.75 C23.05399475 11.56262634 24.33587277 14.92298156 24.2109375 21.58203125 C23.66213975 27.87287954 22.96348627 34.93674528 17.9375 39.25 C15 41 15 41 13 41 C13 41.66 13 42.32 13 43 C-2.51219512 44.3687231 -2.51219512 44.3687231 -8.38671875 41.13671875 C-13.63126435 36.4587372 -15.7501356 33.55544751 -16.23828125 26.609375 C-16.51683909 12.12436716 -16.51683909 12.12436716 -12 7 C-8.42900658 4.12289629 -4.56003709 2.55273177 0 2 C0 1.34 0 0.68 0 0 Z M-10.4375 10 C-14.27150879 17.36129687 -13.30331742 25.7067191 -10.9375 33.5 C-7.51924672 37.91064939 -3.84129136 40.45073873 1.6875 41.51953125 C6.71474493 41.81976949 10.30194342 41.30822987 14.5 38.4375 C19.14722204 34.31404274 20.67957699 30.77149389 21.37890625 24.72265625 C21.67144188 18.8906161 21.81104348 14.18160691 18.3125 9.3125 C14.27392592 4.93659722 11.22382326 2.8666201 5.1875 2.5625 C-1.5466816 2.79332888 -6.17421287 4.75287737 -10.4375 10 Z " fill="#CBE1EF" transform="translate(659,533)"/>
<path d="M0 0 C0.33 0 0.66 0 1 0 C1.33 33.66 1.66 67.32 2 102 C6.95 102 11.9 102 17 102 C17.66 101.01 18.32 100.02 19 99 C21.625 98.8125 21.625 98.8125 24 99 C24.495 99.99 24.495 99.99 25 101 C33.52259838 103.17085053 42.2629884 103.2573915 51 103 C50.67 103.66 50.34 104.32 50 105 C46.43765572 105.08741124 42.87558892 105.14052896 39.3125 105.1875 C38.30509766 105.21263672 37.29769531 105.23777344 36.25976562 105.26367188 C27.24251023 105.35295163 27.24251023 105.35295163 23 102 C20.80869466 101.30420546 20.80869466 101.30420546 19 101 C18.67 101.99 18.34 102.98 18 104 C15.20807795 104.05380578 12.4171859 104.09357669 9.625 104.125 C8.43390625 104.15013672 8.43390625 104.15013672 7.21875 104.17578125 C5.14507985 104.19335473 3.07116759 104.10335168 1 104 C-1 102 -1 102 -1.24888897 100.19775391 C-1.2483442 99.46476074 -1.24779943 98.73176758 -1.24723816 97.9765625 C-1.25143265 97.13528809 -1.25562714 96.29401367 -1.25994873 95.42724609 C-1.25432922 94.50250488 -1.24870972 93.57776367 -1.24291992 92.625 C-1.24481827 91.65256348 -1.24671661 90.68012695 -1.24867249 89.67822266 C-1.25238823 86.45206737 -1.24166465 83.2261354 -1.23046875 80 C-1.22927728 77.76562527 -1.22882372 75.53125003 -1.2290802 73.296875 C-1.22751395 68.6093432 -1.21921349 63.92188762 -1.20581055 59.234375 C-1.18882053 53.21482285 -1.18499613 47.19535456 -1.18575573 41.17578125 C-1.18548426 36.56053868 -1.18000683 31.94531457 -1.17275429 27.33007812 C-1.16956393 25.11002746 -1.16759936 22.8899747 -1.16686058 20.66992188 C-1.16470091 17.57157806 -1.1559647 14.47332453 -1.14526367 11.375 C-1.14571686 10.45025879 -1.14617004 9.52551758 -1.14663696 8.57275391 C-1.14237198 7.73147949 -1.13810699 6.89020508 -1.13371277 6.0234375 C-1.13203692 5.29044434 -1.13036108 4.55745117 -1.12863445 3.80224609 C-1 2 -1 2 0 0 Z " fill="#B3D4E9" transform="translate(625,489)"/>
<path d="M0 0 C1.32 0 2.64 0 4 0 C4 0.66 4 1.32 4 2 C4.59296875 2.26425781 5.1859375 2.52851562 5.796875 2.80078125 C9.81711711 4.98910452 12.12077855 7.84016999 14 12 C15.28296341 21.31944622 14.8757324 30.81620791 9.125 38.5078125 C3.82335766 44.72554745 3.82335766 44.72554745 0 46 C-8.05544117 46.62524182 -17.45462772 46.27852603 -24 41 C-24 40.01 -24 39.02 -24 38 C-24.99 37.67 -25.98 37.34 -27 37 C-27.6875 34.9375 -27.6875 34.9375 -28 33 C-26.70684939 33.95632999 -25.41553147 34.91513851 -24.125 35.875 C-23.40570312 36.40867187 -22.68640625 36.94234375 -21.9453125 37.4921875 C-20 39 -20 39 -18 41 C-16.06742145 41.36831081 -16.06742145 41.36831081 -13.8671875 41.4140625 C-13.06152344 41.45273437 -12.25585938 41.49140625 -11.42578125 41.53125 C-10.16314453 41.57765625 -10.16314453 41.57765625 -8.875 41.625 C-7.60076172 41.68300781 -7.60076172 41.68300781 -6.30078125 41.7421875 C-4.20088316 41.83656494 -2.10047109 41.91937586 0 42 C0 41.34 0 40.68 0 40 C0.928125 39.443125 1.85625 38.88625 2.8125 38.3125 C7.35770993 35.01499475 8.43675886 31.40657577 9.6875 26.0625 C10.45147567 18.57553843 10.41900053 12.88312567 5.5625 6.8125 C3.12291479 3.90755289 3.12291479 3.90755289 0 2 C0 1.34 0 0.68 0 0 Z " fill="#83BDDF" transform="translate(672,534)"/>
<path d="M0 0 C1.48306641 0.02126953 1.48306641 0.02126953 2.99609375 0.04296875 C3.98738281 0.04941406 4.97867188 0.05585938 6 0.0625 C8.43359375 0.23046875 8.43359375 0.23046875 9.43359375 1.23046875 C9.52203168 3.67877301 9.54888127 6.09867474 9.53125 8.546875 C9.52983505 9.27792953 9.5284201 10.00898407 9.52696228 10.76219177 C9.52134783 13.10582507 9.50879297 15.44936414 9.49609375 17.79296875 C9.49108061 19.37825383 9.48651738 20.96354041 9.48242188 22.54882812 C9.47137372 26.44274485 9.45409947 30.3365908 9.43359375 34.23046875 C9.10359375 34.23046875 8.77359375 34.23046875 8.43359375 34.23046875 C8.43359375 23.67046875 8.43359375 13.11046875 8.43359375 2.23046875 C4.80359375 2.23046875 1.17359375 2.23046875 -2.56640625 2.23046875 C-2.56640625 34.90046875 -2.56640625 67.57046875 -2.56640625 101.23046875 C0.73359375 101.23046875 4.03359375 101.23046875 7.43359375 101.23046875 C7.92859375 100.24046875 7.92859375 100.24046875 8.43359375 99.23046875 C10.4296875 98.78125 10.4296875 98.78125 12.87109375 98.54296875 C13.67417969 98.45660156 14.47726562 98.37023437 15.3046875 98.28125 C17.43359375 98.23046875 17.43359375 98.23046875 19.43359375 99.23046875 C19.10359375 99.89046875 18.77359375 100.55046875 18.43359375 101.23046875 C17.31984375 101.16859375 16.20609375 101.10671875 15.05859375 101.04296875 C13.26421875 101.13578125 13.26421875 101.13578125 11.43359375 101.23046875 C10.77359375 102.22046875 10.11359375 103.21046875 9.43359375 104.23046875 C6.39453125 104.5234375 6.39453125 104.5234375 2.80859375 104.41796875 C1.62007812 104.39089844 0.4315625 104.36382813 -0.79296875 104.3359375 C-1.70820312 104.30113281 -2.6234375 104.26632812 -3.56640625 104.23046875 C-4.70075281 101.96177563 -4.69436109 100.72547672 -4.70011902 98.20703125 C-4.704384 97.36575684 -4.70864899 96.52448242 -4.71304321 95.65771484 C-4.71259003 94.73297363 -4.71213684 93.80823242 -4.71166992 92.85546875 C-4.71502853 91.88303223 -4.71838715 90.9105957 -4.72184753 89.90869141 C-4.73137488 86.68260433 -4.73330143 83.45656903 -4.734375 80.23046875 C-4.73758594 77.99609353 -4.74094989 75.76171852 -4.74446106 73.52734375 C-4.75045652 68.83983879 -4.75230049 64.15235228 -4.75170898 59.46484375 C-4.75160725 53.44526398 -4.76526956 47.42580185 -4.78248119 41.40625 C-4.79357409 36.79101005 -4.79562904 32.1757988 -4.79509926 27.56054688 C-4.79628309 25.34049066 -4.80072724 23.12043379 -4.80843163 20.90039062 C-4.81817851 17.80199829 -4.81537472 14.70386485 -4.80932617 11.60546875 C-4.81494568 10.68072754 -4.82056519 9.75598633 -4.82635498 8.80322266 C-4.82216049 7.96194824 -4.817966 7.12067383 -4.81364441 6.25390625 C-4.81418918 5.52091309 -4.81473394 4.78791992 -4.81529522 4.03271484 C-4.37872382 0.87142932 -3.01964709 0.27117074 0 0 Z " fill="#83BDDE" transform="translate(631.56640625,486.76953125)"/>
<path d="M0 0 C0 4.31618166 -2.13270348 5.92789659 -5 9 C-5.66 9 -6.32 9 -7 9 C-7 9.66 -7 10.32 -7 11 C-13.5677608 17.01217983 -23.40864979 18.95947066 -32.0625 19.375 C-38.19234436 18.7912053 -44.32880864 17.366499 -50.109375 15.21484375 C-50.73328125 15.14394531 -51.3571875 15.07304688 -52 15 C-52.56332031 15.47953125 -53.12664063 15.9590625 -53.70703125 16.453125 C-57.25036056 18.84351411 -60.55329948 18.11549229 -64.6875 17.75 C-65.47189453 17.69714844 -66.25628906 17.64429688 -67.06445312 17.58984375 C-72.83940972 17.16059028 -72.83940972 17.16059028 -74 16 C-74.07179964 14.48071962 -74.08392007 12.95832518 -74.0625 11.4375 C-74.05347656 10.61121094 -74.04445313 9.78492188 -74.03515625 8.93359375 C-74.02355469 8.29550781 -74.01195312 7.65742187 -74 7 C-73.67 7 -73.34 7 -73 7 C-72.34 9.31 -71.68 11.62 -71 14 C-65.39 14 -59.78 14 -54 14 C-53.67 13.34 -53.34 12.68 -53 12 C-50.49255793 12.41790701 -48.38146193 12.79074174 -46.14013672 14.02026367 C-42.06915983 15.88392216 -37.53029205 15.32685884 -33.125 15.3125 C-32.14402344 15.32861328 -31.16304687 15.34472656 -30.15234375 15.36132812 C-24.63673106 15.36504986 -20.79403508 15.02700292 -16 12 C-15.29875 11.690625 -14.5975 11.38125 -13.875 11.0625 C-11.89511719 10.05062572 -11.89511719 10.05062572 -10.25 8.25 C-7.11640718 5.11640718 -3.576562 2.60429272 0 0 Z " fill="#D1E4F0" transform="translate(697,578)"/>
<path d="M0 0 C0.99 0.33 1.98 0.66 3 1 C1.02 1.99 1.02 1.99 -1 3 C-1 55.8 -1 108.6 -1 163 C-1.66 162.67 -2.32 162.34 -3 162 C-2.91620797 141.1730675 -2.82111483 120.34621412 -2.71247292 99.51939583 C-2.66229657 89.84969803 -2.61585434 80.18000894 -2.578125 70.51025391 C-2.54524051 62.08460595 -2.50542913 53.65902449 -2.45720994 45.23344982 C-2.43190957 40.76990525 -2.41013887 36.30640498 -2.39665604 31.84280777 C-2.38386762 27.64527564 -2.36184848 23.44789517 -2.33261681 19.25044632 C-2.32351571 17.70647313 -2.31784493 16.1624755 -2.31578636 14.61847687 C-2.31248155 12.51705297 -2.29705358 10.4160638 -2.2784729 8.31472778 C-2.27017676 6.54765063 -2.27017676 6.54765063 -2.26171303 4.74487495 C-2 2 -2 2 0 0 Z " fill="#1A6178" transform="translate(433,234)"/>
<path d="M0 0 C4.26219897 0.47357766 6.08119264 0.96444035 9 4 C10.670625 4.5878125 10.670625 4.5878125 12.375 5.1875 C16.21152448 6.75293176 17.81866609 9.01722773 19.95703125 12.4765625 C22.87235297 19.53011242 23.29668542 26.5739665 23.1875 34.125 C23.18685547 34.97964844 23.18621094 35.83429687 23.18554688 36.71484375 C23.15195464 41.57452092 22.81159081 46.20836785 22 51 C21.34 51 20.68 51 20 51 C19.34 52.32 18.68 53.64 18 55 C18 52 18 52 18.9765625 49.45703125 C20.34933418 44.81999715 20.36819087 40.49815004 20.375 35.6875 C20.39949219 34.78837891 20.42398438 33.88925781 20.44921875 32.96289062 C20.47760818 26.41912808 19.03516447 21.75446852 16 16 C15.46375 14.845 14.9275 13.69 14.375 12.5 C13.24572616 9.88611695 13.24572616 9.88611695 11 9 C11 8.34 11 7.68 11 7 C9.9275 6.71125 8.855 6.4225 7.75 6.125 C4.90599636 5.27179891 2.56491017 4.4363497 0 3 C0 2.01 0 1.02 0 0 Z " fill="#9FCAE4" transform="translate(677,520)"/>
<path d="M0 0 C2.82879286 2.82879286 2.3142666 4.79924198 2.4140625 8.7578125 C2.44311172 9.75238968 2.44311172 9.75238968 2.4727478 10.76705933 C2.53255954 12.88624177 2.57893388 15.0054785 2.625 17.125 C2.66317845 18.56122169 2.70223011 19.99742045 2.7421875 21.43359375 C2.83826125 24.95551936 2.92228642 28.47761608 3 32 C3.78286377 31.78778809 4.56572754 31.57557617 5.37231445 31.35693359 C16.01534658 28.56598869 27.80293968 26.53005373 38 32 C39.73828125 33.60546875 39.73828125 33.60546875 41 35 C39.28103516 34.566875 39.28103516 34.566875 37.52734375 34.125 C35.99749932 33.74957805 34.46754549 33.37460171 32.9375 33 C32.18533203 32.80921875 31.43316406 32.6184375 30.65820312 32.421875 C24.02872165 30.81472797 18.23034035 30.31362903 11.625 32.4375 C10.77164063 32.70433594 9.91828125 32.97117187 9.0390625 33.24609375 C7.03512951 33.82553367 7.03512951 33.82553367 6 35 C3.5 35.125 3.5 35.125 1 35 C0 34 0 34 -0.11352539 30.76538086 C-0.11336631 29.33185874 -0.10767407 27.89833088 -0.09765625 26.46484375 C-0.0962413 25.71159317 -0.09482635 24.95834259 -0.09336853 24.18226624 C-0.08775376 21.7673044 -0.07519883 19.35243399 -0.0625 16.9375 C-0.0574869 15.30403779 -0.05292366 13.67057414 -0.04882812 12.03710938 C-0.03777954 8.02470415 -0.02050506 4.01236759 0 0 Z " fill="#D9E9F3" transform="translate(644,485)"/>
<path d="M0 0 C2 2 2 2 2.22705078 5.07275391 C2.21657715 6.36101074 2.20610352 7.64926758 2.1953125 8.9765625 C2.1924826 9.66181 2.18965271 10.3470575 2.18673706 11.05307007 C2.17553281 13.24389027 2.15042859 15.43430316 2.125 17.625 C2.11497048 19.1093691 2.10584458 20.5937446 2.09765625 22.078125 C2.07559294 25.71888261 2.04106176 29.35940156 2 33 C5.83560309 32.53046781 8.7936615 32.09648573 12.31640625 30.44921875 C17.01825582 28.59939246 20.94657005 28.66448002 25.9375 28.8125 C27.24944336 28.83280273 27.24944336 28.83280273 28.58789062 28.85351562 C30.72553086 28.88855891 32.86284984 28.94235459 35 29 C35.495 29.99 35.495 29.99 36 31 C34.75605469 30.93039062 33.51210938 30.86078125 32.23046875 30.7890625 C21.73315817 30.38406227 14.92170444 30.94405517 6 37 C5.34 37 4.68 37 4 37 C4 36.34 4 35.68 4 35 C3.01 35 2.02 35 1 35 C-0.1687481 31.4937557 -0.12514267 28.3522134 -0.09765625 24.70703125 C-0.0962413 24.00100266 -0.09482635 23.29497406 -0.09336853 22.56755066 C-0.08777764 20.31582374 -0.07522688 18.06419679 -0.0625 15.8125 C-0.05748382 14.28450665 -0.05292112 12.75651173 -0.04882812 11.22851562 C-0.0378112 7.48563865 -0.02055287 3.74283627 0 0 Z " fill="#97C8E3" transform="translate(641,489)"/>
<path d="M0 0 C3.97465309 0.58883749 6.14283607 2.21086379 9 5 C11.23710379 8.21403026 13.18836271 11.52962576 15 15 C15.34780518 15.64622314 15.69561035 16.29244629 16.05395508 16.95825195 C19.04560847 22.96625004 19.66456072 28.14955843 19.5625 34.8125 C19.55734375 35.77430176 19.5521875 36.73610352 19.546875 37.72705078 C19.35052048 45.3835852 17.93772985 51.3339859 14 58 C12.86088292 54.58264877 13.12285438 54.13691188 14.40625 50.95703125 C16.2285059 45.81165457 16.53782733 41.11522388 16.5 35.6875 C16.49645508 34.76831787 16.49291016 33.84913574 16.48925781 32.90209961 C16.30787966 25.4478519 14.81435038 19.47678868 11 13 C10.61972656 12.33484375 10.23945312 11.6696875 9.84765625 10.984375 C8.44156162 8.71339953 7.42017591 7.21008795 5 6 C5 5.34 5 4.68 5 4 C4.01 3.67 3.02 3.34 2 3 C2 2.34 2 1.68 2 1 C1.34 0.67 0.68 0.34 0 0 Z " fill="#D8E8F2" transform="translate(685,520)"/>
<path d="M0 0 C1.32 0 2.64 0 4 0 C4 0.66 4 1.32 4 2 C4.556875 2.20625 5.11375 2.4125 5.6875 2.625 C9.08408898 4.64459345 11.39675289 6.37996981 13 10 C14.01670997 18.14309372 14.05803484 27.62901212 10 35 C7.59220418 37.72785048 5.06647102 40.03381263 2 42 C1.34 42 0.68 42 0 42 C0 41.34 0 40.68 0 40 C0.928125 39.443125 1.85625 38.88625 2.8125 38.3125 C7.35770993 35.01499475 8.43675886 31.40657577 9.6875 26.0625 C10.45147567 18.57553843 10.41900053 12.88312567 5.5625 6.8125 C3.12291479 3.90755289 3.12291479 3.90755289 0 2 C0 1.34 0 0.68 0 0 Z " fill="#99C8E4" transform="translate(672,534)"/>
<path d="M0 0 C0.97066406 -0.02578125 1.94132813 -0.0515625 2.94140625 -0.078125 C4.17697266 0.08429687 4.17697266 0.08429687 5.4375 0.25 C6.0975 1.24 6.7575 2.23 7.4375 3.25 C3.1475 2.92 -1.1425 2.59 -5.5625 2.25 C-5.5625 2.91 -5.5625 3.57 -5.5625 4.25 C-6.17738281 4.51554688 -6.79226563 4.78109375 -7.42578125 5.0546875 C-8.23402344 5.40789063 -9.04226563 5.76109375 -9.875 6.125 C-11.07576172 6.64707031 -11.07576172 6.64707031 -12.30078125 7.1796875 C-16.44000275 9.13849007 -18.28806566 10.86318117 -19.98681641 15.13720703 C-21.07068853 19.11508208 -20.87133674 23.09627391 -20.75 27.1875 C-20.73646484 28.06212891 -20.72292969 28.93675781 -20.70898438 29.83789062 C-20.67394109 31.97553086 -20.62014541 34.11284984 -20.5625 36.25 C-21.2225 36.25 -21.8825 36.25 -22.5625 36.25 C-23.52558613 32.18962888 -23.72770857 28.35599699 -23.75 24.1875 C-23.76417969 22.97964844 -23.77835938 21.77179687 -23.79296875 20.52734375 C-23.57240037 17.3907866 -23.10251964 15.90258136 -21.5625 13.25 C-21.17959538 11.25889599 -20.83645385 9.25899487 -20.5625 7.25 C-19.10543274 6.74632243 -17.64679904 6.24717444 -16.1875 5.75 C-15.37539063 5.4715625 -14.56328125 5.193125 -13.7265625 4.90625 C-11.5625 4.25 -11.5625 4.25 -9.5625 4.25 C-9.2325 3.26 -8.9025 2.27 -8.5625 1.25 C-5.49668931 0.2280631 -3.21449926 0.0513635 0 0 Z " fill="#91C4E1" transform="translate(664.5625,530.75)"/>
<path d="M0 0 C4.56549645 4.56549645 3.31007073 11.76730824 3.31469727 17.80493164 C3.19853744 25.83233193 2.7475108 33.78705959 -2.82421875 40.05078125 C-4.75 41.75 -4.75 41.75 -8 44 C-8 40.36848887 -6.98559794 38.89717554 -5.125 35.8125 C-4.59132813 34.91144531 -4.05765625 34.01039063 -3.5078125 33.08203125 C-3.01023437 32.39496094 -2.51265625 31.70789063 -2 31 C-1.34 31 -0.68 31 0 31 C0 20.77 0 10.54 0 0 Z " fill="#B1D3E7" transform="translate(699,540)"/>
<path d="M0 0 C1 2 1 2 0.54296875 3.72265625 C-0.17460602 6.73234037 0.07391441 9.35725315 0.3125 12.4375 C0.39113281 13.54996094 0.46976563 14.66242187 0.55078125 15.80859375 C1.10035601 19.712964 1.74214431 22.72322919 4.55859375 25.58203125 C9.41139191 28.76005915 13.49750395 29.81695393 19.30859375 29.56640625 C24.73266855 28.4249101 28.19772869 24.80227131 32 21 C31.66522875 24.12453165 31.02559449 24.97709967 28.625 27.125 C23.84433861 30.53975813 21.08252665 31.26507534 15.3125 31.125 C14.61060547 31.11597656 13.90871094 31.10695313 13.18554688 31.09765625 C11.45688475 31.07413704 9.72839855 31.03826713 8 31 C7.67 30.01 7.34 29.02 7 28 C6.401875 27.855625 5.80375 27.71125 5.1875 27.5625 C2.15471478 26.78264094 0.94717881 25.41718749 -1 23 C-2.09738509 18.98813113 -2.16533971 15.08147499 -2.1875 10.9375 C-2.20167969 9.72964844 -2.21585938 8.52179687 -2.23046875 7.27734375 C-2.01494866 4.21257502 -1.61519102 2.56004585 0 0 Z " fill="#DCEBF4" transform="translate(647,544)"/>
<path d="M0 0 C0.33 0 0.66 0 1 0 C1.66 1.98 2.32 3.96 3 6 C5.45898655 6.08076963 7.91533742 6.14037143 10.375 6.1875 C11.42300781 6.22520508 11.42300781 6.22520508 12.4921875 6.26367188 C14.76747677 6.32978561 14.76747677 6.32978561 18 6 C18.66 5.01 19.32 4.02 20 3 C22.625 2.8125 22.625 2.8125 25 3 C25.33 3.66 25.66 4.32 26 5 C34.52259838 7.17085053 43.2629884 7.2573915 52 7 C51.67 7.66 51.34 8.32 51 9 C47.43765572 9.08741124 43.87558892 9.14052896 40.3125 9.1875 C39.30509766 9.21263672 38.29769531 9.23777344 37.25976562 9.26367188 C28.24251023 9.35295163 28.24251023 9.35295163 24 6 C21.80869466 5.30420546 21.80869466 5.30420546 20 5 C19.67 5.99 19.34 6.98 19 8 C16.20807795 8.05380578 13.4171859 8.09357669 10.625 8.125 C9.8309375 8.14175781 9.036875 8.15851562 8.21875 8.17578125 C6.14507985 8.19335473 4.07116759 8.10335168 2 8 C0 6 0 6 -0.125 2.875 C-0.08375 1.92625 -0.0425 0.9775 0 0 Z " fill="#B2D5E8" transform="translate(624,585)"/>
<path d="M0 0 C10.75169724 -0.86090102 10.75169724 -0.86090102 14.5 2.25 C15.7375 3.61125 15.7375 3.61125 17 5 C17.639375 5.70125 18.27875 6.4025 18.9375 7.125 C19.288125 7.74375 19.63875 8.3625 20 9 C19.67 9.99 19.34 10.98 19 12 C18.443125 11.236875 17.88625 10.47375 17.3125 9.6875 C14.38450694 6.28469725 12.29116408 4.32448265 7.73828125 3.6796875 C1.65208012 3.40007642 -2.96792472 4.52519513 -8 8 C-9.02524599 8.97409993 -10.03305631 9.96800199 -11 11 C-10.38722388 8.03824877 -9.74627478 6.61941217 -8 4 C-5.37643538 3.01484622 -2.75475877 2.57761071 0 2 C0 1.34 0 0.68 0 0 Z " fill="#D3E6F1" transform="translate(659,533)"/>
<path d="M0 0 C0.66 0.33 1.32 0.66 2 1 C1.34 2.03125 0.68 3.0625 0 4.125 C-3.39221824 10.86131991 -3.07624975 19.17683665 -1.06640625 26.31640625 C-0.00978729 28.97537045 0.74443392 30.28576978 3 32 C3.99 32.33 4.98 32.66 6 33 C6.33 33.66 6.66 34.32 7 35 C7.99 35.66 8.98 36.32 10 37 C5.66467365 36.48498783 3.46635743 35.09625277 0.25 32.1875 C-0.52859375 31.50042969 -1.3071875 30.81335938 -2.109375 30.10546875 C-6.34464922 25.38891337 -5.39034371 18.7659657 -5.296875 12.7265625 C-4.90122913 7.76016568 -3.63297649 3.63297649 0 0 Z " fill="#B9D8EB" transform="translate(648,539)"/>
<path d="M0 0 C1.29315061 0.95632999 2.58446853 1.91513851 3.875 2.875 C4.59429688 3.40867187 5.31359375 3.94234375 6.0546875 4.4921875 C8 6 8 6 10 8 C11.93257855 8.36831081 11.93257855 8.36831081 14.1328125 8.4140625 C15.34130859 8.47207031 15.34130859 8.47207031 16.57421875 8.53125 C17.83685547 8.57765625 17.83685547 8.57765625 19.125 8.625 C19.97449219 8.66367187 20.82398438 8.70234375 21.69921875 8.7421875 C23.79911684 8.83656494 25.89952891 8.91937586 28 9 C25.40787292 11.59212708 23.56339545 11.28827606 20.02539062 11.32226562 C19.25388672 11.31904297 18.48238281 11.31582031 17.6875 11.3125 C16.92759766 11.32861328 16.16769531 11.34472656 15.38476562 11.36132812 C10.83027008 11.36528512 7.61959578 11.08496487 4 8 C4 7.01 4 6.02 4 5 C3.01 4.67 2.02 4.34 1 4 C0.3125 1.9375 0.3125 1.9375 0 0 Z " fill="#9BC8E3" transform="translate(644,567)"/>
<path d="M0 0 C0.99 0.33 1.98 0.66 3 1 C3.02932572 4.18748029 3.04690739 7.37492528 3.0625 10.5625 C3.07087891 11.45775391 3.07925781 12.35300781 3.08789062 13.27539062 C3.10629571 18.29997943 2.86266398 23.04817291 2 28 C1.34 28 0.68 28 0 28 C-0.66 29.32 -1.32 30.64 -2 32 C-2 29 -2 29 -1.0078125 26.5546875 C0.4517415 21.40664819 0.21018423 16.44573792 0.125 11.125 C0.11597656 10.05507813 0.10695313 8.98515625 0.09765625 7.8828125 C0.07419342 5.25497561 0.04136459 2.62760594 0 0 Z " fill="#89BFDE" transform="translate(697,543)"/>
<path d="M0 0 C0.68578125 -0.0103125 1.3715625 -0.020625 2.078125 -0.03125 C5.58017493 0.06545355 7.3028065 0.41084517 10.03515625 2.6640625 C10.53917969 3.31117188 11.04320312 3.95828125 11.5625 4.625 C6.6875 3.75 6.6875 3.75 5.5625 2.625 C3.77309028 2.52591217 1.97964492 2.49529621 0.1875 2.5 C-0.78960938 2.49742187 -1.76671875 2.49484375 -2.7734375 2.4921875 C-5.54214416 2.51065965 -5.54214416 2.51065965 -8.4375 3.625 C-8.829375 4.099375 -9.22125 4.57375 -9.625 5.0625 C-12.50734967 7.5472842 -15.74762658 7.83863353 -19.4375 8.625 C-19.4375 7.965 -19.4375 7.305 -19.4375 6.625 C-13.13297636 2.13703402 -7.67297207 0.02805474 0 0 Z " fill="#84BDDF" transform="translate(664.4375,529.375)"/>
<path d="M0 0 C0.97066406 -0.02578125 1.94132813 -0.0515625 2.94140625 -0.078125 C4.17697266 0.08429687 4.17697266 0.08429687 5.4375 0.25 C6.0975 1.24 6.7575 2.23 7.4375 3.25 C3.1475 2.92 -1.1425 2.59 -5.5625 2.25 C-5.5625 2.91 -5.5625 3.57 -5.5625 4.25 C-6.17738281 4.51554688 -6.79226563 4.78109375 -7.42578125 5.0546875 C-8.23402344 5.40789063 -9.04226563 5.76109375 -9.875 6.125 C-11.07576172 6.64707031 -11.07576172 6.64707031 -12.30078125 7.1796875 C-15.70993708 8.79300131 -17.44910896 10.07991344 -19.5625 13.25 C-19.5 11 -19.5 11 -18.5625 8.25 C-15.90507905 6.1601187 -13.02699449 4.25 -9.5625 4.25 C-9.2325 3.26 -8.9025 2.27 -8.5625 1.25 C-5.49668931 0.2280631 -3.21449926 0.0513635 0 0 Z " fill="#A4CEE6" transform="translate(664.5625,530.75)"/>
<path d="M0 0 C0.87914062 0.00902344 1.75828125 0.01804687 2.6640625 0.02734375 C4.8178271 0.05075423 6.97145014 0.0866199 9.125 0.125 C9.455 0.785 9.785 1.445 10.125 2.125 C8.88105469 2.05539062 7.63710938 1.98578125 6.35546875 1.9140625 C-4.14184183 1.50906227 -10.95329556 2.06905517 -19.875 8.125 C-20.535 8.125 -21.195 8.125 -21.875 8.125 C-21.875 7.465 -21.875 6.805 -21.875 6.125 C-20.225 5.795 -18.575 5.465 -16.875 5.125 C-16.545 4.135 -16.215 3.145 -15.875 2.125 C-10.71518242 -0.36424107 -5.58977641 -0.10943839 0 0 Z " fill="#8CC1E1" transform="translate(666.875,517.875)"/>
<path d="M0 0 C1.26972656 0.00257813 2.53945313 0.00515625 3.84765625 0.0078125 C5.11480469 0.00523437 6.38195312 0.00265625 7.6875 0 C10.91015625 0.1328125 10.91015625 0.1328125 12.91015625 1.1328125 C12.91015625 3.1128125 12.91015625 5.0928125 12.91015625 7.1328125 C12.25015625 7.1328125 11.59015625 7.1328125 10.91015625 7.1328125 C10.58015625 5.8128125 10.25015625 4.4928125 9.91015625 3.1328125 C7.80627056 3.07878976 5.70198911 3.04000994 3.59765625 3.0078125 C2.42589844 2.98460937 1.25414062 2.96140625 0.046875 2.9375 C-3.25378036 2.87960632 -3.25378036 2.87960632 -6.08984375 5.1328125 C-3.68282197 0.15830082 -3.68282197 0.15830082 0 0 Z " fill="#BEDBEC" transform="translate(631.08984375,483.8671875)"/>
<path d="M0 0 C4.19312868 0.46590319 6.21036498 0.8616606 9 4 C10.98188345 5.36011609 12.97951869 6.69791204 15 8 C14.67 8.99 14.34 9.98 14 11 C13.01 10.34 12.02 9.68 11 9 C11 8.34 11 7.68 11 7 C9.9275 6.71125 8.855 6.4225 7.75 6.125 C4.90599636 5.27179891 2.56491017 4.4363497 0 3 C0 2.01 0 1.02 0 0 Z " fill="#8DC2E1" transform="translate(677,520)"/>
<path d="M0 0 C0 4.31618166 -2.13270348 5.92789659 -5 9 C-5.66 9 -6.32 9 -7 9 C-7 9.66 -7 10.32 -7 11 C-8.65 11.66 -10.3 12.32 -12 13 C-8.43679155 7.90789714 -4.95258714 3.77339973 0 0 Z " fill="#DBEBF4" transform="translate(697,578)"/>
<path d="M0 0 C1.32 0 2.64 0 4 0 C5.484375 1.64453125 5.484375 1.64453125 6.75 3.8125 C7.39195312 4.87404297 7.39195312 4.87404297 8.046875 5.95703125 C9 8 9 8 9 11 C8.60167969 10.51789062 8.20335937 10.03578125 7.79296875 9.5390625 C7.26316406 8.90742187 6.73335937 8.27578125 6.1875 7.625 C5.66542969 6.99851562 5.14335938 6.37203125 4.60546875 5.7265625 C2.91774261 3.7778952 2.91774261 3.7778952 0 2 C0 1.34 0 0.68 0 0 Z " fill="#A7CFE6" transform="translate(672,534)"/>
<path d="M0 0 C0.33 0.66 0.66 1.32 1 2 C-2.33562767 6.51290803 -4.33289301 8.68206814 -10 10 C-7.02911382 6.00073014 -3.87051275 3.07881696 0 0 Z " fill="#3D768C" transform="translate(422,589)"/>
<path d="M0 0 C0.99 0.33 1.98 0.66 3 1 C1.02 1.99 1.02 1.99 -1 3 C-1 8.61 -1 14.22 -1 20 C-1.33 20 -1.66 20 -2 20 C-2.05379226 17.04142591 -2.09357093 14.08382279 -2.125 11.125 C-2.14175781 10.28324219 -2.15851563 9.44148437 -2.17578125 8.57421875 C-2.18222656 7.76855469 -2.18867188 6.96289062 -2.1953125 6.1328125 C-2.21102295 5.01737061 -2.21102295 5.01737061 -2.22705078 3.87939453 C-2 2 -2 2 0 0 Z " fill="#27687E" transform="translate(433,234)"/>
</svg>
