<svg width="20" height="20" viewBox="0 0 20 20" fill="none" xmlns="http://www.w3.org/2000/svg">
<g clip-path="url(#clip0_11_30995)">
<path d="M10 16.6667H10.0083" stroke="#C27AFF" stroke-width="1.66667" stroke-linecap="round" stroke-linejoin="round"/>
<path d="M7.08203 13.6908C7.8609 12.9274 8.90806 12.4998 9.9987 12.4998C11.0893 12.4998 12.1365 12.9274 12.9154 13.6908" stroke="#C27AFF" stroke-width="1.66667" stroke-linecap="round" stroke-linejoin="round"/>
<path d="M4.16797 10.7158C5.34966 9.55738 6.84948 8.77701 8.4763 8.47412" stroke="#C27AFF" stroke-width="1.66667" stroke-linecap="round" stroke-linejoin="round"/>
<path d="M15.8327 10.7159C15.3309 10.2241 14.7689 9.79763 14.1602 9.44678" stroke="#C27AFF" stroke-width="1.66667" stroke-linecap="round" stroke-linejoin="round"/>
<path d="M1.66797 7.34996C2.69847 6.42836 3.87471 5.68409 5.1488 5.14746" stroke="#C27AFF" stroke-width="1.66667" stroke-linecap="round" stroke-linejoin="round"/>
<path d="M18.3324 7.35009C17.0614 6.21327 15.5712 5.34854 13.9534 4.80912C12.3357 4.26969 10.6248 4.06697 8.92578 4.21342" stroke="#C27AFF" stroke-width="1.66667" stroke-linecap="round" stroke-linejoin="round"/>
<path d="M1.66797 1.66675L18.3346 18.3334" stroke="#C27AFF" stroke-width="1.66667" stroke-linecap="round" stroke-linejoin="round"/>
</g>
<defs>
<clipPath id="clip0_11_30995">
<rect width="20" height="20" fill="white"/>
</clipPath>
</defs>
</svg>
