<svg width="40" height="40" viewBox="0 0 40 40" fill="none" xmlns="http://www.w3.org/2000/svg">
<path d="M24.9974 3.33331H9.9974C9.11334 3.33331 8.26549 3.6845 7.64037 4.30962C7.01525 4.93474 6.66406 5.78259 6.66406 6.66665V33.3333C6.66406 34.2174 7.01525 35.0652 7.64037 35.6903C8.26549 36.3155 9.11334 36.6666 9.9974 36.6666H29.9974C30.8815 36.6666 31.7293 36.3155 32.3544 35.6903C32.9795 35.0652 33.3307 34.2174 33.3307 33.3333V11.6666L24.9974 3.33331Z" stroke="#AD46FF" stroke-width="3.33333" stroke-linecap="round" stroke-linejoin="round"/>
<path d="M23.3359 3.33331V9.99998C23.3359 10.884 23.6871 11.7319 24.3122 12.357C24.9374 12.9821 25.7852 13.3333 26.6693 13.3333H33.3359" stroke="#AD46FF" stroke-width="3.33333" stroke-linecap="round" stroke-linejoin="round"/>
<path d="M16.6693 15H13.3359" stroke="#AD46FF" stroke-width="3.33333" stroke-linecap="round" stroke-linejoin="round"/>
<path d="M26.6693 21.6667H13.3359" stroke="#AD46FF" stroke-width="3.33333" stroke-linecap="round" stroke-linejoin="round"/>
<path d="M26.6693 28.3333H13.3359" stroke="#AD46FF" stroke-width="3.33333" stroke-linecap="round" stroke-linejoin="round"/>
</svg>
