<svg width="20" height="20" viewBox="0 0 20 20" fill="none" xmlns="http://www.w3.org/2000/svg">
<g clip-path="url(#clip0_11_31414)">
<path d="M5.0013 8.33317H3.33464C2.89261 8.33317 2.46868 8.15758 2.15612 7.84501C1.84356 7.53245 1.66797 7.10853 1.66797 6.6665V3.33317C1.66797 2.89114 1.84356 2.46722 2.15612 2.15466C2.46868 1.8421 2.89261 1.6665 3.33464 1.6665H16.668C17.11 1.6665 17.5339 1.8421 17.8465 2.15466C18.159 2.46722 18.3346 2.89114 18.3346 3.33317V6.6665C18.3346 7.10853 18.159 7.53245 17.8465 7.84501C17.5339 8.15758 17.11 8.33317 16.668 8.33317H15.0013" stroke="#FDC700" stroke-width="1.66667" stroke-linecap="round" stroke-linejoin="round"/>
<path d="M5.0013 11.6665H3.33464C2.89261 11.6665 2.46868 11.8421 2.15612 12.1547C1.84356 12.4672 1.66797 12.8911 1.66797 13.3332V16.6665C1.66797 17.1085 1.84356 17.5325 2.15612 17.845C2.46868 18.1576 2.89261 18.3332 3.33464 18.3332H16.668C17.11 18.3332 17.5339 18.1576 17.8465 17.845C18.159 17.5325 18.3346 17.1085 18.3346 16.6665V13.3332C18.3346 12.8911 18.159 12.4672 17.8465 12.1547C17.5339 11.8421 17.11 11.6665 16.668 11.6665H15.0013" stroke="#FDC700" stroke-width="1.66667" stroke-linecap="round" stroke-linejoin="round"/>
<path d="M5 5H5.00833" stroke="#FDC700" stroke-width="1.66667" stroke-linecap="round" stroke-linejoin="round"/>
<path d="M5 15H5.00833" stroke="#FDC700" stroke-width="1.66667" stroke-linecap="round" stroke-linejoin="round"/>
<path d="M10.8333 5L7.5 10H12.5L9.16667 15" stroke="#FDC700" stroke-width="1.66667" stroke-linecap="round" stroke-linejoin="round"/>
</g>
<defs>
<clipPath id="clip0_11_31414">
<rect width="20" height="20" fill="white"/>
</clipPath>
</defs>
</svg>
