<svg width="16" height="16" viewBox="0 0 16 16" fill="none" xmlns="http://www.w3.org/2000/svg">
<path d="M8.14393 1.33203H7.8507C7.49719 1.33203 7.15816 1.47246 6.90819 1.72243C6.65823 1.9724 6.5178 2.31142 6.5178 2.66493V2.78489C6.51756 3.01863 6.45585 3.2482 6.33888 3.45057C6.22191 3.65293 6.05377 3.82098 5.85135 3.93785L5.56477 4.10446C5.36215 4.22145 5.1323 4.28304 4.89832 4.28304C4.66435 4.28304 4.4345 4.22145 4.23187 4.10446L4.1319 4.05115C3.82605 3.87471 3.46268 3.82685 3.12157 3.91806C2.78046 4.00928 2.48947 4.23211 2.3125 4.53766L2.16588 4.79091C1.98944 5.09676 1.94158 5.46013 2.03279 5.80124C2.12401 6.14236 2.34684 6.43334 2.65239 6.61032L2.75235 6.67696C2.95381 6.79326 3.12131 6.96026 3.23823 7.16136C3.35515 7.36245 3.4174 7.59064 3.4188 7.82325V8.16314C3.41974 8.39801 3.35859 8.62896 3.24156 8.8326C3.12452 9.03624 2.95576 9.20533 2.75235 9.32277L2.65239 9.38275C2.34684 9.55972 2.12401 9.85071 2.03279 10.1918C1.94158 10.5329 1.98944 10.8963 2.16588 11.2022L2.3125 11.4554C2.48947 11.761 2.78046 11.9838 3.12157 12.075C3.46268 12.1662 3.82605 12.1183 4.1319 11.9419L4.23187 11.8886C4.4345 11.7716 4.66435 11.71 4.89832 11.71C5.1323 11.71 5.36215 11.7716 5.56477 11.8886L5.85135 12.0552C6.05377 12.1721 6.22191 12.3401 6.33888 12.5425C6.45585 12.7449 6.51756 12.9744 6.5178 13.2082V13.3281C6.5178 13.6816 6.65823 14.0207 6.90819 14.2706C7.15816 14.5206 7.49719 14.661 7.8507 14.661H8.14393C8.49744 14.661 8.83647 14.5206 9.08644 14.2706C9.3364 14.0207 9.47683 13.6816 9.47683 13.3281V13.2082C9.47707 12.9744 9.53878 12.7449 9.65575 12.5425C9.77272 12.3401 9.94086 12.1721 10.1433 12.0552L10.4299 11.8886C10.6325 11.7716 10.8623 11.71 11.0963 11.71C11.3303 11.71 11.5601 11.7716 11.7628 11.8886L11.8627 11.9419C12.1686 12.1183 12.5319 12.1662 12.8731 12.075C13.2142 11.9838 13.5052 11.761 13.6821 11.4554L13.8288 11.1955C14.0052 10.8896 14.0531 10.5263 13.9618 10.1852C13.8706 9.84404 13.6478 9.55306 13.3422 9.37608L13.2423 9.32277C13.0389 9.20533 12.8701 9.03624 12.7531 8.8326C12.636 8.62896 12.5749 8.39801 12.5758 8.16314V7.82992C12.5749 7.59505 12.636 7.3641 12.7531 7.16046C12.8701 6.95683 13.0389 6.78773 13.2423 6.6703L13.3422 6.61032C13.6478 6.43334 13.8706 6.14236 13.9618 5.80124C14.0531 5.46013 14.0052 5.09676 13.8288 4.79091L13.6821 4.53766C13.5052 4.23211 13.2142 4.00928 12.8731 3.91806C12.5319 3.82685 12.1686 3.87471 11.8627 4.05115L11.7628 4.10446C11.5601 4.22145 11.3303 4.28304 11.0963 4.28304C10.8623 4.28304 10.6325 4.22145 10.4299 4.10446L10.1433 3.93785C9.94086 3.82098 9.77272 3.65293 9.65575 3.45057C9.53878 3.2482 9.47707 3.01863 9.47683 2.78489V2.66493C9.47683 2.31142 9.3364 1.9724 9.08644 1.72243C8.83647 1.47246 8.49744 1.33203 8.14393 1.33203Z" stroke="#364153" stroke-width="1.3329" stroke-linecap="round" stroke-linejoin="round"/>
<path d="M7.9974 9.99675C9.10161 9.99675 9.99675 9.10161 9.99675 7.9974C9.99675 6.89319 9.10161 5.99805 7.9974 5.99805C6.89319 5.99805 5.99805 6.89319 5.99805 7.9974C5.99805 9.10161 6.89319 9.99675 7.9974 9.99675Z" stroke="#364153" stroke-width="1.3329" stroke-linecap="round" stroke-linejoin="round"/>
</svg>
